<svg width="18" height="18" viewBox="0 0 18 18" fill="none" xmlns="http://www.w3.org/2000/svg">
<path d="M8.99984 0.666667C4.40478 0.666667 0.666504 4.40501 0.666504 9C0.666504 13.595 4.40478 17.3333 8.99984 17.3333C13.5949 17.3333 17.3332 13.595 17.3332 9C17.3332 4.40501 13.5949 0.666667 8.99984 0.666667ZM8.99984 15.7204C5.29421 15.7204 2.27939 12.7057 2.27939 9C2.27939 5.29434 5.29421 2.27956 8.99984 2.27956C12.7055 2.27956 15.7203 5.29437 15.7203 9C15.7203 12.7056 12.7055 15.7204 8.99984 15.7204Z" fill="#00A364"/>
<path d="M11.9242 6.0104L7.92454 10.01L5.80657 7.89213L4.66614 9.03257L7.92454 12.291L13.0646 7.15083L11.9242 6.0104Z" fill="#00A364"/>
</svg>
