<svg width="20" height="20" viewBox="0 0 20 20" fill="none" xmlns="http://www.w3.org/2000/svg">
<path d="M4.44283 18.3136C6.08661 19.4124 8.01923 19.9992 9.99644 20C12.5346 19.9995 14.9777 19.0341 16.8306 17.2995C18.6836 15.5648 19.8078 13.1906 19.9754 10.6579C19.4302 11.0139 18.8062 11.2309 18.1579 11.2901C17.9111 12.8493 17.2228 14.3052 16.1744 15.4854C15.1259 16.6656 13.7613 17.5207 12.242 17.9494C10.7228 18.3781 9.11245 18.3626 7.60173 17.9046C6.09101 17.4466 4.74314 16.5654 3.71769 15.3652C2.69224 14.165 2.03214 12.6961 1.81554 11.1324C1.59894 9.5687 1.8349 7.97569 2.4955 6.54194C3.1561 5.10819 4.21367 3.89374 5.54302 3.04235C6.87237 2.19095 8.41782 1.73828 9.99644 1.7379C11.2189 1.7336 12.4268 2.00364 13.5311 2.52813C13.7401 1.98423 14.0227 1.4716 14.3711 1.00457C12.4999 0.0961447 10.392 -0.206472 8.34082 0.138821C6.2896 0.484114 4.397 1.46015 2.92631 2.93114C1.52874 4.32978 0.577147 6.11132 0.191783 8.05062C-0.19358 9.98991 0.00458252 11.9999 0.761229 13.8266C1.51788 15.6533 2.79904 17.2148 4.44283 18.3136Z" fill="white"/>
<path d="M6.87441 7.88685C6.32045 8.09104 6.08483 8.17789 6.08483 9.15414C8.40493 15.2736 10.6475 15.9034 11.4702 13.4126C13.6009 7.97123 17.1887 5.1339 18.9524 3.73914C19.6619 3.17804 20.0762 2.85041 19.9817 2.68061C19.6521 2.08873 12.8153 5.04577 9.73344 10.006C9.61507 9.78758 9.51244 9.59532 9.41893 9.42013C9.15348 8.92286 8.96143 8.56307 8.69087 8.1324C8.325 7.55001 7.86271 7.49785 7.12702 7.79102C7.03637 7.82714 6.95225 7.85815 6.87441 7.88685Z" fill="white"/>
</svg>
