<svg width="8" height="10" viewBox="0 0 8 10" fill="none" xmlns="http://www.w3.org/2000/svg">
<path d="M1.62531 10C0.902949 10 0.721654 9.92858 0.721654 9.28583V3.57247L0.546002 3.51319C0.403504 3.51491 0.265973 3.4608 0.16366 3.36272C0.0613461 3.26464 0.00266021 3.13064 0 2.98977V2.03411C0.00265906 1.89344 0.0612826 1.75959 0.16366 1.66186C0.266037 1.56412 0.403706 1.51049 0.546002 1.51278L2.1699 1.42996V0.715793C2.16327 0.620318 2.17756 0.52452 2.21152 0.434903C2.24548 0.345285 2.29827 0.263877 2.36671 0.196207C2.43516 0.128537 2.51733 0.0761711 2.60797 0.0425973C2.69862 0.00902357 2.79569 -0.00492674 2.89226 0.00162325H5.05934C5.15594 -0.00504624 5.25293 0.00889144 5.34363 0.042423C5.43433 0.0759545 5.51641 0.128337 5.58488 0.196032C5.65335 0.263728 5.70687 0.345056 5.74078 0.434728C5.7747 0.5244 5.78844 0.62029 5.7817 0.715793V1.42996H7.22642C7.52764 1.42996 7.94878 1.74491 7.94878 2.03272V2.9882C7.94878 3.63524 8.24719 3.5118 7.40348 3.5118L7.22712 3.57108V9.28444C7.22712 9.86577 6.98443 9.99861 6.32347 9.99861L1.62531 10ZM6.50124 9.28583V3.57247H1.44472V9.28583H6.50124ZM0.722359 2.14413V2.8583L7.29202 2.8848V2.13629L0.722359 2.14413ZM2.88944 1.42996H5.05652V0.715793H2.88944V1.42996ZM5.05652 8.57166V4.28664H5.77888V8.57166H5.05652ZM3.6118 8.57166V4.28664H4.33416V8.57166H3.6118ZM2.16708 8.57166V4.28664H2.88944V8.57166H2.16708Z" fill="#212121"/>
</svg>
