<svg width="12" height="13" viewBox="0 0 12 13" fill="none" xmlns="http://www.w3.org/2000/svg">
<path d="M5.99913 12.3333C4.84546 12.3331 3.71776 11.9908 2.75863 11.3496C1.7995 10.7085 1.05202 9.7974 0.610688 8.73148C0.16936 7.66556 0.054011 6.49271 0.279226 5.36123C0.504442 4.22975 1.06011 3.19047 1.87596 2.37478C2.69181 1.55909 3.73122 1.00364 4.86274 0.778658C5.99426 0.553674 7.16709 0.669263 8.23292 1.11081C9.29875 1.55236 10.2097 2.30003 10.8506 3.25929C11.4916 4.21855 11.8337 5.34632 11.8337 6.49999C11.8322 8.04684 11.217 9.52989 10.1231 10.6236C9.02916 11.7172 7.54598 12.3322 5.99913 12.3333ZM5.5084 5.58272C5.51707 5.58256 5.52571 5.58391 5.53392 5.5867C5.56959 5.60139 5.5985 5.62885 5.61501 5.66372C5.63153 5.69859 5.63445 5.73835 5.62321 5.77526L4.65292 8.98712C4.6254 9.0697 4.61625 9.15728 4.6261 9.24377C4.63594 9.33025 4.66455 9.41354 4.70992 9.48781C4.77437 9.57877 4.8575 9.65491 4.95375 9.71114C5.05 9.76738 5.15714 9.80241 5.26802 9.8139C5.98558 9.8139 6.43006 9.36623 6.91122 8.64389C6.91122 8.61718 6.91401 8.57612 6.91681 8.53546C6.92805 8.43672 6.92952 8.3371 6.92119 8.23807L6.33598 8.94367C6.25677 9.04694 6.14397 9.11927 6.01707 9.14817C6.00759 9.1482 5.99817 9.14672 5.98916 9.14379C5.95635 9.13086 5.92922 9.10667 5.91263 9.07555C5.89605 9.04442 5.8911 9.00841 5.89867 8.97396L6.87375 5.74496C6.89636 5.64771 6.89832 5.5468 6.87951 5.44875C6.86069 5.35069 6.82152 5.25768 6.76452 5.1757C6.70512 5.09939 6.63012 5.03663 6.54454 4.99161C6.45895 4.94658 6.36475 4.92032 6.26821 4.91459C5.78426 4.91459 5.05754 5.43283 4.61305 6.09776C4.61305 6.1153 4.61305 6.13763 4.61305 6.16673V6.18187C4.60784 6.28472 4.60944 6.38779 4.61784 6.49042L5.20464 5.78642C5.27956 5.68572 5.3868 5.61381 5.5084 5.58272ZM6.78087 3.11432C6.69218 3.11084 6.60372 3.12564 6.521 3.1578C6.43827 3.18996 6.36305 3.2388 6.30001 3.30128C6.23697 3.36376 6.18746 3.43855 6.15455 3.52098C6.12165 3.60341 6.10606 3.69174 6.10876 3.78045C6.10757 3.91363 6.14598 4.04416 6.21911 4.15547C6.29224 4.26679 6.39679 4.35386 6.51949 4.40565C6.6422 4.45744 6.77752 4.4716 6.90829 4.44635C7.03905 4.4211 7.15937 4.35756 7.25397 4.26381C7.34856 4.17005 7.41317 4.05031 7.43959 3.91977C7.46602 3.78923 7.45306 3.65379 7.40237 3.53063C7.35168 3.40747 7.26554 3.30214 7.15489 3.22802C7.04423 3.1539 6.91405 3.11433 6.78087 3.11432Z" fill="#1494D5"/>
</svg>
