<svg width="12" height="16" viewBox="0 0 12 16" fill="none" xmlns="http://www.w3.org/2000/svg">
<path d="M9.69823 15.5H2.30225C1.79111 15.5 1.30096 15.2986 0.939527 14.9401C0.578097 14.5817 0.375 14.0955 0.375 13.5886V7.668C0.375776 7.33388 0.465277 7.00585 0.634433 6.7169C0.803589 6.42795 1.04644 6.18822 1.33863 6.0219V5.27798C1.33863 2.63904 3.29941 0.5 5.71823 0.5H6.28177C8.70059 0.5 10.6614 2.63904 10.6614 5.27798V6.0219C10.9536 6.18818 11.1965 6.42782 11.3657 6.71678C11.5348 7.00574 11.6243 7.33387 11.625 7.668V13.5886C11.6251 13.8396 11.5753 14.088 11.4785 14.3199C11.3817 14.5518 11.2398 14.7626 11.0608 14.9401C10.8819 15.1176 10.6694 15.2584 10.4356 15.3545C10.2018 15.4505 9.9513 15.5 9.69823 15.5ZM5.48419 11.8796V13.6521H6.4588V11.8796C6.74265 11.7828 6.98958 11.6018 7.16617 11.3611C7.34276 11.1204 7.4404 10.8316 7.44587 10.534C7.44587 10.1538 7.29367 9.78925 7.02259 9.52041C6.75152 9.25157 6.38384 9.1005 6.00049 9.1005C5.61713 9.1005 5.24945 9.25157 4.97838 9.52041C4.70731 9.78925 4.55511 10.1538 4.55511 10.534C4.54846 10.8265 4.63441 11.1139 4.80099 11.3554C4.96757 11.5969 5.20637 11.7806 5.4837 11.8805L5.48419 11.8796ZM9.34516 5.46444C9.34516 3.5119 7.92047 1.92839 6.16274 1.92839H5.83872C4.081 1.92839 2.6563 3.5119 2.6563 5.46444V6.26394H9.34516V5.46444Z" fill="#797979"/>
</svg>
