<svg width="16" height="16" viewBox="0 0 16 16" fill="none" xmlns="http://www.w3.org/2000/svg">
<path d="M0.986097 15.1098C1.24221 15.3574 1.59146 15.5 1.95624 15.5H14.0403C14.4051 15.5 14.7543 15.3574 15.0104 15.1098C15.2665 14.8622 15.414 14.5245 15.414 14.1718V14.0818L14.8552 13.3689C14.7465 13.0238 14.0558 10.9752 13.0624 9.9097C12.7209 9.54202 12.3251 9.34692 11.8827 9.33191C11.0755 9.31691 10.4314 9.8947 10.4314 9.8947L10.377 9.96973C10.377 9.97724 9.90361 10.8702 8.30483 10.9002H7.69946C6.12395 10.8702 5.61948 9.96973 5.61948 9.96973L5.56515 9.8947C5.54187 9.87219 4.90546 9.3019 4.11383 9.33191C3.67144 9.34692 3.27563 9.54202 2.93414 9.9097C1.94071 10.9752 1.24998 13.0238 1.14132 13.3689L0.58252 14.0818V14.1718C0.58252 14.5245 0.729981 14.8622 0.986097 15.1098Z" fill="#797979"/>
<path d="M3.75681 5.14482C3.75681 7.7036 5.62724 9.78964 7.91677 9.78964C10.2141 9.78964 12.0767 7.7036 12.0767 5.14482C12.0767 2.58604 10.2141 0.5 7.91677 0.5C5.61948 0.5 3.75681 2.58604 3.75681 5.14482Z" fill="#797979"/>
</svg>
