<svg width="25" height="25" viewBox="0 0 25 25" fill="none" xmlns="http://www.w3.org/2000/svg">
<path d="M3.65854 3.65854C-1.21951 8.53659 -1.21951 16.4634 3.65854 21.3415C8.53659 26.2195 16.4634 26.2195 21.3415 21.3415C26.2195 16.4634 26.2195 8.53659 21.3415 3.65854C16.4634 -1.21951 8.53659 -1.21951 3.65854 3.65854ZM5.60207 19.3979C2.13401 15.9298 1.82913 10.4421 4.72561 6.6311L18.3689 20.2744C14.5579 23.1709 9.07012 22.866 5.60213 19.3979L5.60207 19.3979ZM20.2743 18.3688L6.59292 4.72554C10.4039 1.82927 15.8917 2.13421 19.3597 5.602C22.8275 9.07006 23.1704 14.5578 20.2742 18.3688L20.2743 18.3688Z" fill="white"/>
</svg>
